<?xml version="1.0" encoding="UTF-8" standalone="no"?>
<!-- Created with Inkscape (http://www.inkscape.org/) -->

<svg
   width="512"
   height="512"
   viewBox="0 0 512 512"
   version="1.1"
   id="svg1"
   xml:space="preserve"
   inkscape:version="1.4.3 (0d15f75042, 2025-12-25)"
   sodipodi:docname="tv-icon.svg"
   xmlns:inkscape="http://www.inkscape.org/namespaces/inkscape"
   xmlns:sodipodi="http://sodipodi.sourceforge.net/DTD/sodipodi-0.dtd"
   xmlns="http://www.w3.org/2000/svg"
   xmlns:svg="http://www.w3.org/2000/svg"><sodipodi:namedview
     id="namedview1"
     pagecolor="#ffffff"
     bordercolor="#000000"
     borderopacity="0.25"
     inkscape:showpageshadow="2"
     inkscape:pageopacity="0.0"
     inkscape:pagecheckerboard="0"
     inkscape:deskcolor="#d1d1d1"
     inkscape:document-units="px"
     inkscape:zoom="1.260915"
     inkscape:cx="188.75182"
     inkscape:cy="337.45335"
     inkscape:window-width="1920"
     inkscape:window-height="1168"
     inkscape:window-x="0"
     inkscape:window-y="0"
     inkscape:window-maximized="1"
     inkscape:current-layer="g3" /><defs
     id="defs1"><linearGradient
       id="swatch1"
       inkscape:swatch="solid"><stop
         style="stop-color:#5e5c64;stop-opacity:1;"
         offset="0"
         id="stop1" /></linearGradient></defs><g
     inkscape:label="Layer 1"
     inkscape:groupmode="layer"
     id="layer1"><g
       style="fill:currentColor;stroke-width:0.0919124"
       id="g1"
       transform="matrix(10.87992,0,0,10.87992,153.36101,86.176226)"><g
         style="fill:currentColor;stroke-width:0.00288322"
         id="g3"
         transform="matrix(2.9300237,0,0,2.9300237,-13.946993,-8.7486843)"><path
           d="M 2.9797139,12.365734 A 0.5,0.5 0 0 0 2.4797063,12.86568 0.5,0.5 0 0 0 2.9797139,13.365688 H 12.979743 a 0.5,0.5 0 0 0 0,-0.999954 z"
           style="fill:#000000"
           id="path8" /><path
           d="m 1.9796987,3.313093 c -0.325,0 -0.5019574,0.078021 -0.6019574,0.1450212 A 0.76,0.76 0 0 0 1.1237245,3.7601038 1.5,1.5 0 0 0 0.98072512,4.2980975 l -9.8029e-4,0.024017 v 5.9909615 c 0,0.325 0.07796,0.502019 0.14495997,0.602019 a 0.76,0.76 0 0 0 0.3020508,0.254017 1.5,1.5 0 0 0 0.5379937,0.142999 l 0.023956,9.81e-4 H 13.979758 c 0.325,0 0.501957,-0.07796 0.601957,-0.14496 a 0.76,0.76 0 0 0 0.254017,-0.302051 1.5,1.5 0 0 0 0.143,-0.537994 l 9.8e-4,-0.02396 V 4.3131081 c 0,-0.325 -0.07796,-0.5020186 -0.14496,-0.6020186 A 0.76,0.76 0 0 0 14.532701,3.4571339 1.5,1.5 0 0 0 13.994707,3.3141345 l -0.02396,-0.00104 z"
           style="fill:#cdab8f;stroke-width:0.00288322;fill-opacity:0"
           id="path5" /><rect
           style="fill:#000000;fill-opacity:1;stroke:#241f31;stroke-width:0;stroke-opacity:1"
           id="rect4-0-3"
           width="2.6397355"
           height="0.28163239"
           x="12.853573"
           y="9.1462975"
           rx="0.1568459"
           ry="0.1408162" /><rect
           style="fill:#000000;fill-opacity:1;stroke:#241f31;stroke-width:0;stroke-opacity:1"
           id="rect4-0-7"
           width="2.6397355"
           height="0.28163239"
           x="9.1744576"
           y="9.1600752"
           rx="0.1568459"
           ry="0.1408162" /><rect
           style="fill:#000000;fill-opacity:1;stroke:#241f31;stroke-width:0;stroke-opacity:1"
           id="rect4-0-6"
           width="2.6397355"
           height="0.28163239"
           x="5.4953413"
           y="9.1914444"
           rx="0.1568459"
           ry="0.1408162" /><rect
           style="fill:#613583;fill-opacity:1;stroke:#241f31;stroke-width:0;stroke-opacity:1"
           id="rect3"
           width="3.1369181"
           height="3.1369181"
           x="1.5676343"
           y="5.7476034"
           rx="0.94107538"
           ry="0.94107538" /><rect
           style="fill:#1a5fb4;fill-opacity:1;stroke:#241f31;stroke-width:0;stroke-opacity:1"
           id="rect3-7"
           width="3.1369181"
           height="3.1369181"
           x="12.604981"
           y="5.7476034"
           rx="0.94107538"
           ry="0.94107538" /><rect
           style="fill:#f8e45c;fill-opacity:1;stroke:#241f31;stroke-width:0;stroke-opacity:1"
           id="rect3-3"
           width="3.1369181"
           height="3.1369181"
           x="8.9258661"
           y="5.7476034"
           rx="0.94107538"
           ry="0.94107538" /><rect
           style="fill:#a51d2d;fill-opacity:1;stroke:#241f31;stroke-width:0;stroke-opacity:1"
           id="rect3-2"
           width="3.1369181"
           height="3.1369181"
           x="5.2467499"
           y="5.7476034"
           rx="0.94107538"
           ry="0.94107538" /><path
           d="m 2.9797139,12.09931 a 0.5,0.5 0 0 0 -0.5000076,0.500007 0.5,0.5 0 0 0 0.5000076,0.500008 H 12.979743 a 0.50000757,0.50000757 0 0 0 0,-1.000015 z"
           style="fill:#9a9996"
           id="path7" /><rect
           style="fill:#000000;fill-opacity:0.21794713;stroke:#000000;stroke-width:0;stroke-dasharray:none;stroke-opacity:0.2313337"
           id="rect8"
           width="10.996468"
           height="0.45988083"
           x="2.4816806"
           y="12.225638" /><path
           d="m 2.1017446,2.4044172 c -1.96346451,0 -1.96343407,1.9634943 -1.96343407,1.9634943 v 5.8903615 c 0,1.963465 1.96343407,1.963495 1.96343407,1.963495 H 13.882591 c 1.963465,0 1.963435,-1.963495 1.963435,-1.963495 V 4.3679115 c 0,-1.9634645 -1.963435,-1.9634943 -1.963435,-1.9634943 z m 0,0.9817473 H 13.873749 l 0.02352,0.00101 a 1.4725985,1.4725985 0 0 1 0.528166,0.1403871 0.74611654,0.74611654 0 0 1 0.296533,0.2493165 c 0.06576,0.098173 0.142312,0.2719579 0.142312,0.5910211 V 10.24948 l -9.62e-4,0.02353 a 1.4725985,1.4725985 0 0 1 -0.140389,0.528165 0.74611654,0.74611654 0 0 1 -0.249376,0.296535 c -0.09818,0.06576 -0.271899,0.142311 -0.59096,0.142311 H 2.1105866 l -0.023518,-9.62e-4 A 1.4725985,1.4725985 0 0 1 1.5589024,11.098671 0.74611654,0.74611654 0 0 1 1.2623695,10.849295 c -0.065776,-0.09817 -0.142312,-0.271958 -0.142312,-0.591022 V 4.3767535 L 1.12102,4.353174 A 1.4725985,1.4725985 0 0 1 1.2614071,3.8250094 0.74611654,0.74611654 0 0 1 1.5107836,3.5285365 c 0.098173,-0.065776 0.2718982,-0.142372 0.590961,-0.142372 z"
           style="fill:#000000;stroke:none;stroke-width:0.0941075;stroke-dasharray:none;stroke-opacity:1"
           id="path6-5" /><path
           d="m 1.9796987,2.3130778 c -2.00000003,0 -1.99996901,2.0000303 -1.99996901,2.0000303 v 5.9999679 c 0,2 1.99996901,2.000031 1.99996901,2.000031 H 13.979758 c 2,0 1.999969,-2.000031 1.999969,-2.000031 V 4.3131081 c 0,-2 -1.999969,-2.0000303 -1.999969,-2.0000303 z m 0,1.0000152 H 13.970752 l 0.02396,0.00104 a 1.5,1.5 0 0 1 0.537994,0.1429994 0.76,0.76 0 0 1 0.302051,0.2539556 c 0.067,0.1 0.14496,0.2770186 0.14496,0.6020186 v 5.9910229 l -9.8e-4,0.02396 a 1.5,1.5 0 0 1 -0.143,0.537994 0.76,0.76 0 0 1 -0.254017,0.302051 c -0.1,0.067 -0.276957,0.14496 -0.601957,0.14496 H 1.9887051 l -0.023956,-9.81e-4 A 1.5,1.5 0 0 1 1.4267556,11.169112 0.76,0.76 0 0 1 1.1247048,10.915095 c -0.067,-0.1 -0.14495997,-0.277019 -0.14495997,-0.602019 V 4.3221145 l 9.8029e-4,-0.024017 A 1.5,1.5 0 0 1 1.1237245,3.7601038 0.76,0.76 0 0 1 1.3777413,3.4581142 c 0.1,-0.067 0.2769574,-0.1450212 0.6019574,-0.1450212 z"
           style="fill:#9a9996;stroke:#000000;stroke-opacity:1;stroke-width:0.09410754;stroke-dasharray:none"
           id="path6" /><rect
           style="fill:#000000;fill-opacity:1;stroke:#241f31;stroke-width:0;stroke-opacity:1"
           id="rect4"
           width="5.6464524"
           height="0.94107538"
           x="1.5676343"
           y="4.0119905"
           rx="0.1568459"
           ry="0.1568459" /><rect
           style="fill:#000000;fill-opacity:1;stroke:#241f31;stroke-width:0;stroke-opacity:1"
           id="rect4-0"
           width="2.6397355"
           height="0.28163239"
           x="1.8162256"
           y="9.1952581"
           rx="0.1568459"
           ry="0.1408162" /></g></g></g></svg>
